<?xml version="1.0" encoding="UTF-8"?><svg id="Layer_1" xmlns="http://www.w3.org/2000/svg" viewBox="0 0 20 20"><defs><style>.cls-1{fill:#4b4b4b;stroke-width:0px;}</style></defs><path class="cls-1" d="m16.32,16.52H3.64v-2.53c0-3.22,2.18-5.98,5.17-6.57.78-.15,1.56-.15,2.33,0,3,.59,5.17,3.35,5.17,6.57v2.53Zm-12.18-.5h11.68v-2.03c0-2.98-2.01-5.54-4.77-6.08-.71-.14-1.43-.14-2.14,0-2.76.54-4.77,3.1-4.77,6.08v2.03Z"/><path class="cls-1" d="m11.38,7.95l-.26-.05c-.75-.14-1.52-.14-2.27,0l-.26.05-.03-.27s0-.09,0-.13c0-.79.64-1.44,1.44-1.44s1.44.64,1.44,1.44c0,.05,0,.09,0,.13l-.03.27Zm-1.4-.65c.3,0,.61.02.92.06-.09-.43-.47-.75-.92-.75s-.83.32-.92.75c.31-.04.61-.06.92-.06Z"/><polygon class="cls-1" points="4.06 11.72 3.45 9.56 4.54 8.69 5.42 9.65 5.05 9.99 4.49 9.37 4.02 9.74 4.54 11.58 4.06 11.72"/><rect class="cls-1" x="6.55" y="8.41" width="6.87" height=".5"/><path class="cls-1" d="m15.09,10.94l-.17-.29c-.19-.33-.42-.64-.67-.93l-.14-.16.13-.16c.52-.64.76-1.32.73-2.01h0c-.1-2.05-2.02-2.36-3.16-2.36h-4.18c-.72,0-1.34-.54-1.44-1.26l-.04-.28h5.64c2.8,0,4.61,1.47,4.72,3.84.06,1.29-.34,2.43-1.19,3.37l-.23.25Zm-.33-1.39c.14.18.28.36.41.55.61-.79.9-1.71.85-2.75-.09-2.07-1.71-3.36-4.22-3.36h-5.02c.15.32.49.54.86.54h4.18c2.24,0,3.57,1.03,3.66,2.84h0c.04.76-.21,1.49-.72,2.19Z"/><rect class="cls-1" x="3.89" y="15.19" width="12.18" height=".5"/></svg>