<?xml version="1.0" encoding="UTF-8"?><svg id="Layer_1" xmlns="http://www.w3.org/2000/svg" viewBox="0 0 20 20"><defs><style>.cls-1{fill:#4b4b4b;stroke-width:0px;}</style></defs><path class="cls-1" d="m11.59,15.89h-3.11c-.06,0-.23,0-.34-.16l-3.11-4.62c-.12-.17-.14-.3-.12-.4.02-.17.15-.26.26-.33l.55-.28c.3-.13.6-.24.9-.33,2.07-.64,4.78-.64,6.84,0,.52.16,1,.37,1.42.6.13.09.25.17.28.31.04.17-.05.32-.14.44l-3.1,4.61c-.05.08-.15.16-.33.16Zm-3.08-.5h3.03s3.07-4.56,3.07-4.56c0,0,.01-.02.02-.03,0,0-.01,0-.02-.01-.37-.21-.81-.4-1.3-.55-1.97-.61-4.56-.61-6.54,0-.29.09-.57.19-.84.31l-.5.25s0,.01.01.02l3.07,4.57Zm6.16-4.66h0Z"/><path class="cls-1" d="m13.49,10.29l-.18-.05c-1.97-.61-4.56-.61-6.54,0l-.18.05-1.55-2.3c-.1-.14-.14-.27-.12-.4.01-.17.15-.26.26-.33l.56-.27c1.18-.54,2.71-.83,4.3-.83,1.87,0,3.64.4,4.84,1.09.13.09.24.17.28.31.04.16-.05.32-.14.44l-1.53,2.29Zm-8.06-2.61s0,.01.01.02l1.35,2c1.99-.57,4.51-.57,6.48,0l1.33-1.99s.01-.02.02-.03c0,0-.01,0-.02-.01-1.12-.64-2.79-1.01-4.58-1.01-1.53,0-2.98.28-4.1.79l-.5.24Zm9.24-.07h0Z"/><path class="cls-1" d="m13.49,7.18l-.18-.05c-1.96-.61-4.57-.61-6.54,0l-.18.05-1.55-2.3c-.12-.17-.14-.3-.12-.4.02-.17.15-.26.26-.33l.56-.27c1.18-.54,2.71-.83,4.3-.83,1.87,0,3.63.4,4.84,1.09.13.09.24.17.28.31.04.17-.05.32-.14.44l-1.53,2.29Zm-8.06-2.61s0,.01.01.02l1.35,2c1.98-.57,4.51-.57,6.48,0l1.33-1.99s.01-.02.02-.03c0,0-.01,0-.02-.01-1.12-.64-2.79-1.01-4.58-1.01-1.53,0-2.98.28-4.1.79l-.5.24Zm9.24-.07h0Z"/></svg>