<?xml version="1.0" encoding="UTF-8"?><svg id="Layer_1" xmlns="http://www.w3.org/2000/svg" viewBox="0 0 20 20"><defs><style>.cls-1{fill:#4b4b4b;stroke-width:0px;}</style></defs><path class="cls-1" d="m7.17,16.54c-.33,0-.62-.24-.68-.57l-.05-.3c-.5-2.87-.77-5.8-.81-8.71h.5c.03,2.88.3,5.78.8,8.62l.05.29c.02.09.13.15.2.16h5.2c.09-.02.19-.07.21-.16l.05-.29c.53-3.12.8-6.3.8-9.47h-7.56v-.5h8.06v.41c0,3.23-.27,6.47-.81,9.64l-.05.29c-.07.34-.38.56-.71.57h-5.2Z"/><path class="cls-1" d="m11.3,9.17h-3.04c-.86,0-1.55-.7-1.55-1.55v-1.99h6.14v1.99c0,.86-.7,1.55-1.55,1.55Zm-4.09-3.04v1.49c0,.58.47,1.05,1.05,1.05h3.04c.58,0,1.05-.47,1.05-1.05v-1.49h-5.14Z"/><path class="cls-1" d="m10.87,12.2h-2.17c-.38,0-.68-.31-.68-.68v-2.85h3.54v2.85c0,.38-.31.68-.68.68Zm-2.35-3.04v2.35c0,.1.08.18.18.18h2.17c.1,0,.18-.08.18-.18v-2.35h-2.54Z"/><path class="cls-1" d="m8.78,13.94c-.83,0-1.97-.44-2.57-.7l.2-.46c.46.2,1.6.65,2.37.65.56,0,1-.12,1.43-.23.41-.11.79-.21,1.25-.21.62.03,1.22.12,1.81.27l-.12.48c-.55-.14-1.12-.22-1.7-.25-.38,0-.73.09-1.11.19-.44.11-.93.24-1.55.24Z"/><path class="cls-1" d="m15.38,12.42c-.21,0-.39-.12-.47-.31-.4-.93-.6-1.92-.6-2.94v-2.86c0-.1-.08-.18-.18-.18h-.43v-.5h.43c.38,0,.68.31.68.68v2.86c0,.95.19,1.87.56,2.74l.02-6.9c0-.34-.28-.62-.62-.62h-1.3v-.5h1.3c.62,0,1.12.5,1.12,1.12v6.9c0,.28-.23.51-.51.51Z"/><path class="cls-1" d="m5.71,4.39l-.1-.49.42-.08c2.49-.5,5.01-.47,7.49.09l-.11.49c-2.41-.54-4.86-.57-7.29-.08l-.42.08Z"/><path class="cls-1" d="m6.13,6.96h-.5c0-.99-.73-1.76-1.34-2.24-.1-.08-.16-.19-.18-.31-.02-.12.02-.25.1-.34.09-.12.23-.17.38-.18h1.06v.5h-.98c.68.55,1.45,1.42,1.45,2.57Z"/><path class="cls-1" d="m9.79,4.82c-1.14,0-2.1-.34-2.45-.86l.42-.28c.21.32.97.64,2.03.64s1.78-.31,2-.6l.4.3c-.37.49-1.31.8-2.4.8Z"/><rect class="cls-1" x="5.64" y="5.63" width=".23" height=".5"/></svg>