<?xml version="1.0" encoding="UTF-8"?><svg id="Layer_1" xmlns="http://www.w3.org/2000/svg" viewBox="0 0 20 20"><defs><style>.cls-1{fill:#4b4b4b;stroke-width:0px;}</style></defs><path class="cls-1" d="m16.37,16.97H4.28v-1.61l6.92-.03V5.78h-6.92v-2.75h12.09v13.93Zm-11.59-.5h11.09v-.66l-11.09.04v.61Zm0-11.18h6.92v10.04l4.17-.02V3.53H4.78v1.75Z"/><path class="cls-1" d="m13.11,14.45c-.38,0-.68-.31-.68-.68s.31-.68.68-.68.68.31.68.68-.31.68-.68.68Zm0-.87c-.1,0-.18.08-.18.18s.08.18.18.18.18-.08.18-.18-.08-.18-.18-.18Z"/><path class="cls-1" d="m14.52,14.45c-.38,0-.68-.31-.68-.68s.31-.68.68-.68.68.31.68.68-.31.68-.68.68Zm0-.87c-.1,0-.18.08-.18.18s.08.18.18.18.18-.08.18-.18-.08-.18-.18-.18Z"/><path class="cls-1" d="m9.92,6.94h-4.48v-1.66h4.48v1.66Zm-3.98-.5h3.48v-.66h-3.48v.66Z"/><path class="cls-1" d="m9.15,8.39h-2.93v-1.95h2.93v1.95Zm-2.43-.5h1.93v-.95h-1.93v.95Z"/><rect class="cls-1" x="4.8" y="7.18" width="1.67" height=".5"/><path class="cls-1" d="m15.05,12.54h-2.47v-7.26h2.47v7.26Zm-1.97-.5h1.47v-6.26h-1.47v6.26Z"/><path class="cls-1" d="m13.99,8.48h-1.42v-1.42h1.42v1.42Zm-.92-.5h.42v-.42h-.42v.42Z"/><path class="cls-1" d="m13.99,10.81h-1.42v-1.42h1.42v1.42Zm-.92-.5h.42v-.42h-.42v.42Z"/><path class="cls-1" d="m7.93,15.84h-.5c-1.28,0-2.32-1.04-2.32-2.32v-3.04h5.14v3.04c0,1.28-1.04,2.32-2.32,2.32Zm-2.32-4.86v2.54c0,1,.82,1.82,1.82,1.82h.5c1,0,1.82-.82,1.82-1.82v-2.54h-4.14Z"/><path class="cls-1" d="m5.36,14.01h-.3c-.79,0-1.42-.66-1.42-1.47s.64-1.47,1.42-1.47h.3v.5h-.3c-.51,0-.92.44-.92.97s.41.97.92.97h.3v.5Z"/></svg>