<?xml version="1.0" encoding="UTF-8"?><svg id="Layer_1" xmlns="http://www.w3.org/2000/svg" viewBox="0 0 20 20"><defs><style>.cls-1{fill:#4b4b4b;stroke-width:0px;}</style></defs><path class="cls-1" d="m10,13.57c-2.71,0-4.92-2.21-4.92-4.92s2.21-4.92,4.92-4.92,4.92,2.21,4.92,4.92-2.21,4.92-4.92,4.92Zm0-9.33c-2.43,0-4.42,1.98-4.42,4.42s1.98,4.42,4.42,4.42,4.42-1.98,4.42-4.42-1.98-4.42-4.42-4.42Z"/><path class="cls-1" d="m15.76,16.65H4.24V3.35h11.52v13.3Zm-11.02-.5h10.52V3.85H4.74v12.3Z"/><path class="cls-1" d="m12.96,15.58h-5.93v-1.73h5.93v1.73Zm-5.43-.5h4.93v-.73h-4.93v.73Z"/><path class="cls-1" d="m6.85,15.58h-1.73v-1.73h1.73v1.73Zm-1.23-.5h.73v-.73h-.73v.73Z"/><path class="cls-1" d="m14.88,15.58h-1.73v-1.73h1.73v1.73Zm-1.23-.5h.73v-.73h-.73v.73Z"/><path class="cls-1" d="m8.89,9.72c-.21,0-.43-.05-.64-.16-.39-.19-.74-.52-.97-.95-.24-.42-.34-.89-.3-1.32.05-.47.27-.84.62-1.04.36-.2.79-.2,1.21,0,.39.19.73.52.97.94.24.42.35.89.31,1.32-.04.44-.25.8-.57,1.01l-.06.04c-.17.1-.37.15-.57.15Zm-.73-3.11c-.11,0-.22.02-.33.08-.28.16-.35.48-.37.66-.03.33.05.69.24,1.02.19.33.46.6.75.74.16.08.47.18.75.02.22-.14.34-.37.37-.66.03-.33-.06-.69-.25-1.03-.19-.33-.45-.59-.75-.73-.1-.05-.26-.11-.43-.11Z"/><path class="cls-1" d="m9,9.32c-.3-.16-.51-.36-.64-.59-.12-.22-.15-.45-.16-.67v-.13c-.02-.25-.03-.49-.15-.72-.05-.09-.12-.18-.2-.25l.35-.36c.12.11.21.24.29.37.18.33.2.65.21.93v.12c.02.18.04.33.11.46.08.15.22.27.44.39l-.24.44Z"/><path class="cls-1" d="m10.91,11.4c-.27,0-.52-.08-.73-.23l.13-.21-.19.17c-.31-.26-.46-.66-.42-1.13.04-.43.23-.87.54-1.25.31-.37.71-.64,1.12-.75.46-.12.88-.05,1.19.21.31.26.46.67.42,1.14-.04.43-.23.87-.54,1.24h0c-.31.38-.71.64-1.13.75-.14.04-.28.06-.42.06Zm.88-2.96c-.11,0-.21.02-.29.04-.32.09-.63.29-.87.59-.25.29-.4.64-.42.97-.01.18,0,.5.24.71.21.16.47.19.75.11.32-.09.63-.3.87-.59h0c.24-.29.39-.63.42-.96.01-.18,0-.5-.25-.71-.14-.12-.31-.15-.45-.15Z"/><path class="cls-1" d="m10.71,10.68l-.5-.07c.05-.34.16-.61.33-.81.17-.19.37-.3.57-.38l.12-.05c.23-.1.45-.2.62-.39.07-.08.12-.17.17-.28l.46.19c-.06.15-.15.29-.25.41-.24.28-.54.41-.8.53l-.11.05c-.17.07-.3.15-.39.26-.11.12-.18.3-.21.54Z"/></svg>