<?xml version="1.0" encoding="UTF-8"?><svg id="Layer_1" xmlns="http://www.w3.org/2000/svg" viewBox="0 0 20 20"><defs><style>.cls-1{fill:#4b4b4b;stroke-width:0px;}</style></defs><path class="cls-1" d="m10.46,16.01c-.21,0-.42-.05-.64-.16-.39-.19-.74-.52-.98-.95-.24-.42-.34-.89-.3-1.32.05-.47.27-.84.62-1.04.35-.2.79-.2,1.22,0,.39.19.73.52.97.94h0c.24.43.35.9.31,1.32-.04.44-.24.8-.57,1.01l-.06.04c-.17.1-.37.15-.57.15Zm-.73-3.11c-.11,0-.22.02-.33.08-.28.16-.35.48-.37.66-.03.33.05.69.24,1.02.19.33.46.6.75.74.16.08.47.18.75.02.22-.14.34-.37.37-.66.03-.33-.05-.69-.24-1.03h0c-.19-.33-.45-.59-.75-.73-.1-.05-.25-.11-.43-.11Z"/><path class="cls-1" d="m10.57,15.61c-.31-.17-.51-.36-.64-.59-.12-.22-.15-.45-.16-.66v-.13c-.02-.25-.03-.49-.15-.72-.05-.09-.12-.18-.2-.25l.34-.36c.12.11.22.24.29.38.18.33.2.65.21.94v.12c.02.18.04.33.11.46.08.15.22.27.44.39l-.24.44Z"/><path class="cls-1" d="m12.48,11.57h-4.76c-.54,0-.97-.44-.97-.97v-.07c0-.54.44-.97.97-.97h4.76c.54,0,.97.44.97.97v.07c0,.54-.44.97-.97.97Zm-4.76-1.51c-.26,0-.47.21-.47.47v.07c0,.26.21.47.47.47h4.76c.26,0,.47-.21.47-.47v-.07c0-.26-.21-.47-.47-.47h-4.76Z"/><path class="cls-1" d="m12.53,10.06h-4.88c-.46,0-.87-.37-1.02-.6-.35-.55-.6-1.53-.61-2.44v-.25s8.14,0,8.14,0v.25c-.02.91-.27,1.89-.62,2.44h0c-.15.23-.56.6-1.02.6Zm-5.99-2.8c.05.74.25,1.51.52,1.93.1.15.37.37.59.37h4.88c.22,0,.5-.22.6-.37h0c.28-.43.48-1.18.53-1.92h-7.12Z"/><path class="cls-1" d="m14.61,17.14H5.58l-.02-.23c-.15-2.06.47-4.03,1.15-5.07.15-.23.55-.77,1.02-.77h4.71c.49,0,.91.59,1.02.77.68,1.04,1.3,3,1.15,5.07l-.02.23Zm-8.55-.5h8.09c.08-1.86-.47-3.6-1.08-4.53-.17-.27-.45-.54-.61-.54h-4.71c-.14,0-.4.23-.61.54-.61.93-1.16,2.67-1.08,4.53Z"/><path class="cls-1" d="m14.36,7.26H5.83v-1.84h8.53v1.84Zm-8.03-.5h7.53v-.84h-7.53v.84Z"/><path class="cls-1" d="m11.09,5.92h-1.98v-1.98h1.98v1.98Zm-1.48-.5h.98v-.98h-.98v.98Z"/><rect class="cls-1" x="10.84" y="4.43" width="5.19" height=".5"/><path class="cls-1" d="m16.23,4.93h-1.28l-.25-2.07h1.78l-.25,2.07Zm-.83-.5h.39l.13-1.07h-.66l.13,1.07Z"/></svg>